# xmcd
#
# Track frame offsets:
#	182
#	20507
#	40530
#
# Disc length: 961 seconds
#
# Revision: 1
# Processed by: cddbd v1.5.2PL0 Copyright (c) Steve Scherf et al.
# Submitted via: audiograbber 1.83.01
#
DISCID=1703bf03
DTITLE=Janet Jackson - Escapade - Remixes [UK]
DYEAR=1990
DGENRE=House
TTITLE0=Escapade (Hippiapolis Mix)
TTITLE1=Escapade (Hippiapolis In Dub)
TTITLE2=Escapade (One Nation Under A Rhythm Mix)
EXTD=
EXTT0=
EXTT1=
EXTT2=
PLAYORDER=
